<svg width="158" height="197" viewBox="0 0 158 197" fill="none" xmlns="http://www.w3.org/2000/svg">
<path d="M74 0V16C74 16 20.9416 58.577 16 89C10.2057 124.672 16 152 16 152L2.99999 159C2.99999 159 -3.06801 124.721 2.99999 89C8.23955 58.156 74 0 74 0Z" fill="black"/>
<path d="M84.3031 0V16C84.3031 16 137.361 58.577 142.303 89C148.097 124.672 142.303 152 142.303 152L155.303 159C155.303 159 161.371 124.721 155.303 89C150.064 58.156 84.3031 0 84.3031 0Z" fill="black"/>
<path d="M23 160C23 160 56.0209 187.516 81 187C104.922 186.506 136 160 136 160L150 167C150 167 110.382 196.846 81 197C51.259 197.156 11 167 11 167L23 160Z" fill="black"/>
</svg>
